# xmcd
# Track frame offsets:
# 150
# 14270
# 25710
# 38952
# 51415
# 65315
# 79062
# 91477
# 102615
# 121792
# 139420
# 152010
# 168987
# 183562
# 196790
# 208820
# 223057
# 238202
# 252502
# 265110
#
# Disc length: 3685 seconds
# Revision: 2
# Processed by: cddbd v1.5.2PL0 Copyright (c) Steve Scherf et al.
# Submitted via: VisiTrax 2.11.3.279 - For more info visit www.synapsa.com
#
DISCID=230e6314
DTITLE=Slim Dusty - A Land He Calls His Own Disc 1
DYEAR=1992
DGENRE=Austalian Country
TTITLE0=Cattlemen From The High Plains
TTITLE1=Australia's On The Wallaby
TTITLE2=Sittin' On The Old Front Verandah
TTITLE3=Old Kentucky Rig
TTITLE4=When The Currawongs Come Down
TTITLE5=Henry Lawson's Pen
TTITLE6=Nulla Creek
TTITLE7=The Shearing Song
TTITLE8=Grandfather Johnson
TTITLE9=My Son's Guitar
TTITLE10=The Crow
TTITLE11=Mount Bukaroo
TTITLE12=The Birdsville Track
TTITLE13=Harry The Breaker
TTITLE14=The Dog Who Stole My Hat
TTITLE15=G'Day G'Day
TTITLE16=Dinkum Bushman's Hands
TTITLE17=Son Of Noisy Dan
TTITLE18=Highway Fever
TTITLE19=Singer From Down Under
EXTD=1992 EMI Music Australia
EXTT0=
EXTT1=
EXTT2=
EXTT3=
EXTT4=
EXTT5=
EXTT6=
EXTT7=
EXTT8=
EXTT9=
EXTT10=
EXTT11=
EXTT12=
EXTT13=
EXTT14=
EXTT15=
EXTT16=
EXTT17=
EXTT18=
EXTT19=
PLAYORDER=
